<?xml version="1.0" encoding="utf-8"?>
<!-- Generator: Adobe Illustrator 20.1.0, SVG Export Plug-In . SVG Version: 6.00 Build 0)  -->
<svg version="1.1" xmlns="http://www.w3.org/2000/svg" xmlns:xlink="http://www.w3.org/1999/xlink" x="0px" y="0px" width="668px"
	 height="668px" viewBox="0 0 668 668" style="enable-background:new 0 0 668 668;" xml:space="preserve">
<style type="text/css">
	.st0{display:none;}
	.st1{display:inline;}
	.st2{opacity:0.35;}
	.st3{fill:#FFFFFF;}
	.st4{enable-background:new    ;}
</style>
<g id="Layer_2" class="st0">
	<rect x="-13" y="-11" class="st1" width="701" height="688"/>
</g>
<g id="Layer_1">
	<g class="st2">
		<g>
			
				<image style="overflow:visible;opacity:0.4;" width="801" height="801" xlink:href="B1C2488B1B9A765D.png"  transform="matrix(1 0 0 1 -67 -56)">
			</image>
			<g>
				<g>
					<circle class="st3" cx="333.6" cy="334.2" r="304"/>
				</g>
			</g>
		</g>
	</g>
	<g>
		
			<image style="overflow:visible;opacity:0.35;" width="831" height="574" xlink:href="B1C2488B1B9A765F.png"  transform="matrix(1 0 0 1 -85 134)">
		</image>
		<g>
			<g>
				<g>
					<g class="st4">
						<path class="st3" d="M167.3,238.2c0.6,0.6,0.9,0.4,1.5,0.4v5.2c-3.4-0.4-7.5,4.9-8.1,4.9c-1.4,0,0.8-1.1-0.6-1.1
							c-0.8,0-2.4,1.3-3.8,3.2l-1.5-1.1c-1.5,1.5-4.2,2.6-6.8,4.1c0.5,0.6,1.5,0.4,2.6-0.1c-0.5,1.6-1.6,1.6-1.9,1.6
							c-1.3,0-1.2-0.9-2-0.9c-0.4,0-17.4,7.5-18.4,7.9c2.7,3.1,7.7,7.1,10.2,9.4l-0.7,0.5c1.3,0.7,3.9,1.3,4,2.3
							c0,0.3-0.2,0.5-0.5,0.8c2.7,2.2,3.8,1.8,6,3.2l-1.2,1c1.5,1.5,2.9,2,5,1.6c3.6,2.3,5.6,7.3,11.4,7.3c1.3,0,3.2,0.7,4.1,1.5
							c-2.5,0.4-6.3,0.5-8.6,0.5c-4.4,0-12.5-5.3-17.8-8.5L140,283c-7.5-5-15.2-10.8-24.3-16.1c-1.6,2.3-3,4.8-4.4,7.6
							c-0.6-0.3-1-0.7-0.3-2.1h-1.1c-1.2,1.5-2,4.1,0.2,4.8c-2,4.5-3.6,9.3-4.8,14.2c-2,0-3.9-0.7-5.4-2c0-1-0.1-1.8-0.4-2.4
							l-0.8,1.2c-0.5-0.7-0.7-1.4-0.4-2.4c-0.4-0.2-0.9-0.3-1.4-0.3c-0.2-3.7,0.8-7.7,2.4-10.5l-0.9-0.7c7-18,18-35.8,26.7-50.7
							c5.7-0.7,7.8,8.4,7.8,11.4c0,2.8-8.8,13.6-7.4,15.3c8-3.8,14.9-7.4,22.7-10.7l0.4,0.6c1-0.3,1.7-1.2,1.7-2.3
							c0.7,0.6,1,0.6,1.3,0.6c0.7,0,1.2-0.7,0.5-1.4h0.1c2.9,0,10.1-5,12.2-5c1.5,0,3.5,2,5,5L167.3,238.2z M107.6,277.3
							c-0.4,0.6-1.3,3-0.6,3.6l1.4-3L107.6,277.3z M112.4,267.8l-2.1,3.4h1.3l2.8-4.7C113.6,266.4,112.8,267.1,112.4,267.8z
							 M128.2,260.2l-1.5,0.7c0,1,1.2,0.6,1.9,0.2L128.2,260.2z M129.3,259.6l0.1,1c1-0.5,3.2-1.1,3-2.4L129.3,259.6z M136.1,256.6
							c0.5,0.1,0.9,0.2,1.3,0.2c1.8-0.1,3.2-1.3,3.6-2.4L136.1,256.6z M150.1,278.6l0.6-0.8l5.5,2.7
							C155.7,281.4,153,280.4,150.1,278.6z M151.3,254c0-0.5,0.9-1.3,2.4-2.1l0.5,0.8L151.3,254z M157.4,283.8
							c-1.5-0.1-2.6-1.3-2.4-1.7l2.6,0.9L157.4,283.8z M158.4,284.3l0.2-0.8l3.1,1C161.3,285,159.2,285,158.4,284.3z M167.1,235.6
							c-0.4,0.3-1.3,1.3-1,1.9l1.5-0.7L167.1,235.6z"/>
						<path class="st3" d="M216.3,240c-9.1,4.1-18.4,4.4-27.2,6.9c-1.1,1.8-2.5,4.1-4.2,6.8c4-0.4,12.3-3.8,15.2-3.8
							c2.9,0,3.8,1,5.9,4.6c-0.4,1.1,0.1,2.1,1.1,2.6l-0.7,2.2c-6.1,1-21,3.4-26,5.6c-2.6,1.1-4.9,12.1-5,14.4
							c3.1,2.3,7.8,1.3,10.7,0.6l0.6,1c0.7,0,1.6-0.6,1.6-1.2c1.5-0.2,2,2.2,3.4,1.8c6.5-1.8,14.2-4.4,19.2-6
							c0.3-0.1,0.7-0.2,0.8,0.1c0.2,0.5-1.3,1.2-2.1,1.6l-6.8,2.5c0.6,0.4,1.7,1.1,2.4,1.5c0.3,0.1,0.1,0.3-0.2,0.4
							c-5,1.7-11.2,3.4-16.8,4.8c1.5,0.7,3.7,0.7,5.6,0.2c4-1.1,9.5-3,14.4-4.7c0.3-0.1,1-0.4,0.5,0.6c-0.6,1-1.4,1.7-2.8,2.2
							c-6.5,2.5-14.9,5.5-21,5.5c-11.7,0-20-5.3-19.6-19.9c0.2-7.4,6.3-16.5,13.6-31.8c-0.5-2.5-0.4-4.9,1.4-7.6
							c5,0.6,7.9-7.1,11.4-7.1c1.9,0,7.2,1.5,8.5,1.9c0.1,2.2-0.4,4.5-1.8,7.2c1.7,0.4,6.5,0.9,8.7,0.9l0.9,1.9
							c0.5,0,1.4-0.6,2.5-0.6s3.5,1,4.9,1.2c0.2,0,0.4,0.2,0.2,0.4c-4,3.6-6.8,1.4-6.1,4.4c3-1.2,5.5-1.9,8.3-3.2
							c0.4-0.2,1-0.9,1.1-0.3C219.1,238.6,217.3,239.2,216.3,240z M174,274.9c-0.4,1.8-0.5,3.1,0.3,3.7l0.5-2.7L174,274.9z
							 M175.6,269.2l-1.1,3.7l0.7,0.9l1.4-4.7L175.6,269.2z M175.8,268.5h0.1c0.6-0.8,1.4-1.6,1.8-2.6c-1.3-0.1-1.7,0.5-1.9,1.5
							V268.5z M181.5,254l1.3-0.2l1-2.3C183.1,251.5,181.8,252.9,181.5,254z M186.1,247.3l-1.7,2.8l1.3-0.3l1.7-2.8L186.1,247.3z
							 M199.1,277.3c-2.8,2.1-6.3,3.5-7.5,1.6c4.6-1,9.2-2.5,12.9-4c0.4-0.2,0.5,0.1,0.3,0.4C203.6,276.7,201,277.4,199.1,277.3z
							 M208.5,236.9l0.3,1.2l1.8-0.8C210.5,236.8,209.1,236.7,208.5,236.9z"/>
						<path class="st3" d="M278.3,230.5c1.1-0.7,3.1-1.2,5.2-1.3c3.6-0.1,6.4,0.4,8.1,1.6l-2,1.4l0.2,0.4c0.7,0,2.6-0.6,3.2-1l2.8,3
							c-5.2,2.4-14.5,9.3-19.6,16.3c-0.6,0.8-1-0.4-1.6,0c-0.2,3.6-2.3,5.5-4.7,9.3c-0.5,0.9-0.3,2.2-0.9,3.6c0,0.6-1.5,1.2-1.8,2.1
							c-2.5,7.7-5.9,15.7-9.1,23.9l-4.5-2.1l-0.6,1.4c-6.4-1.7-7-4.2-7.9-10.9c-0.3-2.6,0.5-7.1-0.2-9.3c-2.4-7-0.1-10-0.7-15.1
							l-0.5-3.9c-3.1,1-6.6,4-9.2,8.7l0.3,1.6c-5,9.4-9.5,22.4-14,28.4H218c-2.9,0-4.5-6.7-5.7-7.3l-0.6-4.4
							c-0.5-3.1,0.4-4.2,1.1-6.1c7.1-17.2,18.5-27.6,26.4-35.7c3,1.1,11.2,6.2,12.6,9.9c1.2,3,2.4,9.3,3.4,13.4
							c6.8-11.8,16.8-26.5,19-27.3l2.1-0.3c-6.2,6.1-10.6,13.3-13,16.8c-0.9,1.5-1.3,2.1-1.1,2.2l0.6,0.4
							C265.7,245.7,272.4,236.2,278.3,230.5z M238.7,237.5l-2.2,2.3c1.2,1,2.3-1,3-1.7L238.7,237.5z M268.5,269.3l-0.9-0.6
							c0.1-1.4,0.2-3.3,1.4-2.8L268.5,269.3z M276.4,246.1c-0.8,1.2-2.4,3.3-1.4,3.8l2.1-3.2C277.3,246.4,276.6,245.8,276.4,246.1z
							 M275.9,235.5l1.7-2.2l-0.8-0.4c-0.5,0.4-1.1,1.1-1.7,2.1C275.2,235.2,275.5,235.6,275.9,235.5z M279,242.6l-2,2.6
							c0.6-0.1,0.8,0.1,0.9,0.5l1.8-2.6C279.9,242.9,279.5,242,279,242.6z M286.6,234.3l0.2,0.9c1-0.7,1.9-0.8,1.7-2.3L286.6,234.3z
							"/>
						<path class="st3" d="M325.9,232.1c6.6-1.4,14-3,18.6-3.6c4.3,1.1,7.8,2.9,9.1,6.5c-1.7,1.5-0.8,4.1,0.1,5.6
							c-0.5,0.3-1,0.5-1.6,0.7l-0.2-0.6c-0.6-0.3-1.1-0.4-1.4-0.4c-0.4,0-0.7,0.3-0.7,0.7c0,0.3,0.1,0.6,0.2,0.8
							c-6,1.2-14.8,0.4-23.1,4h-1.4v-1.1c-0.9-0.1-1.6,0.4-2.2,1.2c-3.4,0.4-4.5,1.7-6.6,8c-0.3,0.9-1.5,2.1-2.1,2.6l0.9,0.5
							c-0.5,2.1-2,6.1-3,6c-1.1-0.1-0.1-2.1-0.7-2c-1.1,0.2-1.2,2.4-1.7,4c0.5,1.3,0.6,2.1,0.6,2.9c-0.5,1.3-1,3.5-1.7,3.5
							c-1,0-0.4-1.9-0.8-2.7c-0.9,1.9-1.6,3.7-2.3,5.4l0.8,0.5c0.5-0.9,1-1.2,1.9-1c-1.9,5.2-3.6,10.4-4.7,14.9
							c-2.4,0.2-4.8-0.1-6.5-0.5l0.4-1.1c-2.6-0.9-2.4-4.3-2.8-8.2c-0.4-0.5-0.8-1.4-0.8-2.1c0-2.5,5.7-17.3,10.7-28.7h-7.8
							c-4.4,0-4.7,1.4-7.9,0.6c-1.5-2.3-3.3-6.7-3.3-9.7c0-1.2,0.4-2.3,1.4-3.3c3.9,0.4,13.2,0.8,19.3-0.4
							c10.1-2.1,5.7-11.6,15-11.6L325.9,232.1z M313.3,258.1l-1,1.8l0.6,0.7l0.8-1.8L313.3,258.1z"/>
						<path class="st3" d="M401.8,244.4c-2-0.2-4.8,1.3-2.4,2.9c0.7,0.4-0.1,1.9-1.3,1.8l-1.4-0.7c-1.3,2.4-2.9,5.6-1.6,5.7
							l-1.1,2.1c-1.9-0.1-2.1,2.6-8.3,10.2l0.8,1c2.5-3.2,4.9-6.6,6.9-9.9c0.7,0.9,0.5,1.8,0.2,2.4c-14,25.8-34.6,28.8-40.4,28.8
							c-0.7,0-0.7-0.3-0.8-0.5c0-0.3,0-0.5-0.7-0.5s-0.6,0.2-0.6,0.5c0.1,0.2,0.2,0.5-0.5,0.5c-2.8,0-4.1-2.7-5.5-4.4l-1.1,0.5
							c-4-2.4-5.8-7-5.8-11.7c0-4,1-8.2,2.7-11.9c4.6-10,12.1-28,15.8-36.4c1.2-1,2.2-1.4,3.1-1.4c2.2,0.1,5.3,8.2,6.1,10.3l1.4-1
							v2.3c-2.9,5.3-7.1,14-9.7,19.7c-0.6-1-0.6-1.6-0.1-2.7c1-0.3-0.4-1.4-0.8-0.8c-2.4,3.5,0.1,5.3-0.9,7.4
							c-0.4,0.9-0.9,1.9-1.4,3.1c-0.9-0.4-1.9,0.7-2.4,1.7c0.6,0.3,1.2,0,1.8-0.4h0.1c-0.7,1.5-1.5,3.4-2.1,4.8
							c-0.4-0.6-0.5-1.4,0.2-2.9l-0.6-0.6c-0.8,1.5-1.8,3.3-1.8,4.5c0,0.7,0.4,1.1,1.3,1.2c-0.4,1-0.8,2-1.1,2.8
							c20.4,0,29.5-15.2,37.7-32.2c0.3-0.9,1.9-0.4,2.8-1c0.9-0.5,0.5-1.4-1.1-1.2c1.6-3.6,3.6-9.3,4-10.9c0.2-0.9,0.8-1.1,1.6-1.1
							c0.6,0,1.3,0.8,2.2,1.5c1.1,0.9,2.4,1.4,2.9,1.6c0.5,1.1,0.7,3.1,0.8,5.1c0.1,2.4,0.4,4.6,2.5,4.8L401.8,244.4z M359.6,285.2
							c-1.3-2.3-4.9-1.5-3.9-0.3c0.4,0.5,0.9,0.6,1.6,0.6S358.9,285.3,359.6,285.2z M357.6,248.8c-0.1,0.2-0.3,0.6-0.2,0.7l1.3,0.8
							c0.7-1,2.4-4.6,1.4-5.6L357.6,248.8z M366.7,282.2c-1.7,0.6-4.1,0.3-3.9,2.6c2-0.4,4-1.2,5.8-2.1
							C368.3,282,367.4,282,366.7,282.2z M369.7,281l0.2,1c2.1-1,5.7-3.3,7.4-4.7C374.9,277.2,373.2,279.1,369.7,281z M384.8,267.3
							c-1.5,1.5-2.8,2.8-1.8,4.1l2.8-3.1L384.8,267.3z"/>
						<path class="st3" d="M435,244.5c-2.9,2.1-5.1,4.5-6.3,5.6l-0.6-1c-1.1,1.8-4.9,4.8-7.7,7.3c-0.1,0.5-0.4,1.6-0.7,2.1
							c-1.8,1.9-11.7,13.3-11.7,18.2c0,1.2,0.5,1.9,1.6,1.9c3.6,0,11.9-2.4,17.9-3.3c1.4-0.2,2.5,0.4,3,1c-4.8,1-11.6,2.2-12.7,4.2
							c1.9,1.2,5.2,0.4,6.7-1.1c5.3-1,12-2.4,17.1-3.1l1.6,0.4l2.4-0.3l1.1,0.7l-5.2,0.8c-1.3,0.2-2.7,0.6-1.8,1.9l0.7,1
							c-0.9,0.4-12,3.7-18.6,5.8c-1.1,0.4-1.8,1.4-1.2,2.1c-2.1,0.5-5.3,1.4-7.6,1.4c-1.1,0-2-1.6-3-1.6c-2.4,0-3-2.5-6.2-2.1
							c-1.8-1.7-5.6-8.1-6.4-9.6c-0.5-0.8-0.7-2.3-0.7-3.4v-2.7c1.6-1.4,1.7-3.5,1.7-5.6l1,0.6c0.7-1.1-0.1-2.5,0.4-3.6
							c2.1-4.2,6.1-10.9,7.4-10.9c1.3,0-0.6,1.5,0.8,1.5c1.1,0,3.2-5.2,4.3-5.2h1.2c-0.3-0.7-0.4-1.9-0.5-2.8h0.7
							c2.6-6.3,21.7-17.6,25.2-17.6c1.2,0,3.6,1.1,5.1,1.9c1.4,3.3,4.2,5.9,3.5,10C443.4,240,438.5,242,435,244.5z M405.7,255.1
							l-1.4,2.3l0.9,0.7l1.3-2.1L405.7,255.1z M406.1,254.4l1,0.6l0.8-1.4C407.1,253.3,406.6,253.5,406.1,254.4z M407.6,270.9
							l-0.7,1.4l0.6,0.8l1.1-2.2H407.6z M411.7,264.4l-1.2,1.9c-0.4,0.7-1.5,2.3-1,3.2l3.1-4.6L411.7,264.4z M415.9,258.7l-0.6,1
							l0.7,0.6l0.8-1L415.9,258.7z M417.3,258.7c2.1-2.1,2.1-2.5,2.1-2.9c-1,0-1.9,1-3,2.3L417.3,258.7z M422.6,288l3.3-1.1
							c1.2,0.9,0.1,1.5-1.4,1.5C423.9,288.4,423.2,288.3,422.6,288z M433.9,284.6c-1.9,1.1-3.8,2.2-5.5,2.2c-0.5,0-1-0.1-1.4-0.3
							C428.9,285.7,431.6,285.2,433.9,284.6L433.9,284.6z M430.8,274.9c4-0.7,8.2-1.5,11.2-1.7c-0.5,1.7-3.9,2.3-6.9,2.3
							C433.3,275.5,431.6,275.3,430.8,274.9z M441.7,280.3l-1-1.2l2.7-0.4l1.3,0.6L441.7,280.3z"/>
						<path class="st3" d="M514,238.2c0.6,0.6,0.9,0.4,1.5,0.4v5.2c-3.4-0.4-7.5,4.9-8.1,4.9c-1.4,0,0.8-1.1-0.6-1.1
							c-0.8,0-2.4,1.3-3.8,3.2l-1.5-1.1c-1.5,1.5-4.2,2.6-6.8,4.1c0.5,0.6,1.5,0.4,2.6-0.1c-0.5,1.6-1.6,1.6-1.9,1.6
							c-1.3,0-1.2-0.9-2-0.9c-0.4,0-17.4,7.5-18.4,7.9c2.7,3.1,7.7,7.1,10.2,9.4l-0.7,0.5c1.3,0.7,3.9,1.3,4,2.3
							c0,0.3-0.2,0.5-0.5,0.8c2.7,2.2,3.8,1.8,6,3.2l-1.2,1c1.5,1.5,2.9,2,5,1.6c3.6,2.3,5.6,7.3,11.4,7.3c1.3,0,3.2,0.7,4.1,1.5
							c-2.5,0.4-6.3,0.5-8.6,0.5c-4.4,0-12.5-5.3-17.8-8.5l-0.2,1.1c-7.5-5-15.2-10.8-24.3-16.1c-1.6,2.3-3,4.8-4.4,7.6
							c-0.6-0.3-1-0.7-0.3-2.1h-1.1c-1.2,1.5-2,4.1,0.2,4.8c-2,4.5-3.6,9.3-4.8,14.2c-2,0-3.9-0.7-5.4-2c0-1-0.1-1.8-0.4-2.4
							l-0.8,1.2c-0.5-0.7-0.7-1.4-0.4-2.4c-0.4-0.2-0.9-0.3-1.4-0.3c-0.2-3.7,0.8-7.7,2.4-10.5l-0.9-0.7c7-18,18-35.8,26.7-50.7
							c5.7-0.7,7.8,8.4,7.8,11.4c0,2.8-8.8,13.6-7.4,15.3c8-3.8,14.9-7.4,22.7-10.7l0.4,0.6c1-0.3,1.7-1.2,1.7-2.3
							c0.7,0.6,1,0.6,1.3,0.6c0.7,0,1.2-0.7,0.5-1.4h0.1c2.9,0,10.1-5,12.2-5c1.5,0,3.5,2,5,5L514,238.2z M454.3,277.3
							c-0.4,0.6-1.3,3-0.6,3.6l1.4-3L454.3,277.3z M459.1,267.8l-2.1,3.4h1.3l2.8-4.7C460.3,266.4,459.5,267.1,459.1,267.8z
							 M474.9,260.2l-1.5,0.7c0,1,1.2,0.6,1.9,0.2L474.9,260.2z M476,259.6l0.1,1c1-0.5,3.2-1.1,3-2.4L476,259.6z M482.8,256.6
							c0.5,0.1,0.9,0.2,1.3,0.2c1.8-0.1,3.2-1.3,3.6-2.4L482.8,256.6z M496.8,278.6l0.6-0.8l5.5,2.7
							C502.4,281.4,499.7,280.4,496.8,278.6z M498,254c0-0.5,0.9-1.3,2.4-2.1l0.5,0.8L498,254z M504.1,283.8
							c-1.5-0.1-2.6-1.3-2.4-1.7l2.6,0.9L504.1,283.8z M505.1,284.3l0.2-0.8l3.1,1C508,285,505.9,285,505.1,284.3z M513.8,235.6
							c-0.4,0.3-1.3,1.3-1,1.9l1.5-0.7L513.8,235.6z"/>
						<path class="st3" d="M546.7,275.7l-1.4-1.3c-1,0.8-2.7,2-0.8,4.4c-0.8,1.2-1.6,2.7-2.4,4.3c-0.9,0.4-1.7,1-2.4,1.7l0.8,2
							l-0.4,0.7l-1.2-1.6c-1.6,2.2-2.7,5.3-3.2,8.3l1.9,0.9c-0.4,1.6-0.6,3.2-0.7,4.5c-0.8,0.4-2.1,0.6-3.1,0.6
							c-3.3,0-5.8-1.2-7.4-2.6c-0.1-1-0.7-1.4-1.4-1.4c-0.8-1-1.1-1.8-1-2.1c1.6-8.4,8-17.7,12.1-29.2l-0.7-0.6
							c-3.1,0-5.6-0.6-8.3-1.9c-0.4,0.6-1,0.8-1.8,0l-6.6-6.5h-1.2c-6.1-8.9-1.6-19.3,3.9-28.5l1.4,0.6c0.2-0.5,0.4-0.9,0.6-1.1
							c0.3-0.3,0.6-0.5,0.9-0.5c0.6,0,5.6,2.1,8.1,3.2l1.6,2.8c-0.9,5.7-4.5,8.5-5.1,14.3l-1.5,1.2c-0.7,4.2-0.3,6.7,2.1,9.8
							c6.7,0.6,11.9-2.5,14.9-6.7l10.6-14.9l0.8,1.3l4-5.8c0.7-1,1.6-1,2.5-0.3c2.6-2.1,4.8-2.3,6.6-1.4c-0.1,1.2,0.4,1.7,2.1,1.9
							c1.1,1.5,1.9,3.6,2.3,5.9c-1,2.5-2.6,4.9-4.7,7.3c-3.9-0.6-4.3,1.2-5.6,3.9l1.4,0.7c-3.9,4.1-7.8,8.1-9.1,11.9l-1.4-1.3
							c-0.1,4-3,6.6-4.5,8.9c-0.7,1.1-0.5,2.5-0.7,3.7l-1-0.7c0.1-0.7,0.1-1.3-0.4-1.7c-1.1,1.9-1.7,2.7,0.1,4.6L546.7,275.7z
							 M535.5,295.2l-0.3,1.7l0.8,0.4l0.6-1.6L535.5,295.2z M537.8,294.3c-1.3-0.9-0.4-3.5,1.3-4.1l0.1,0.1L537.8,294.3z M546,280.3
							c-0.3,0.6-0.9,1.1-1.9,0.7l0.9-1.6L546,280.3z M565.2,246.9c0.5-0.5,1.4-1.6,2.6-1c-0.6,0.7-1.3,1.5-2,2.2L565.2,246.9z"/>
					</g>
					<g class="st4">
						<path class="st3" d="M294.8,336c-0.8,1.7-0.5,6.1-2.6,8.1c1.4,0.8,0.6,3.3-0.7,4.5c0.6,1.5,1,2.6-1.1,5.4
							c-0.1,0.4,0.9-0.1,1.1-0.3c-0.2,3.4-1,6.1-2,9.1c-3.1,0-5.9-3-7.5-2.4c0.1-2-0.2-2.8-1.6-2.8l0.1-1.4c0.5,0,0.9-0.3,1-1
							c-0.5,0-0.9-0.3-0.9-1c0.2-2.3,1.4-5.2,2-8.2c0.7,0,0.7,1.3,0.6,2.8c0.7,0,1.8-4.1,2-6.4l-1.2-0.5c-0.1,1.6-0.1,3.8-1.3,3.3
							c0.3-1.4,0.6-4.9,0.9-6.1l1.7,2.1c-0.1-1.2,0.4-1.5,0.2-3c-5.7-0.2-20.8,7.9-25.3,11l-0.5,1.3l0.4,1.2
							c-1.7,3.5-3.2,7.6-4.8,9.7l-6.3-2.7c-0.3-3.1-4.6-4.4-3.5-7h-1.6c2.2-15.1,18.9-31.3,28.3-43.9c4.7-6.2,9.4-10.4,13.3-13.5
							c0.7-0.6,3.5,0.4,3.7-1.5c1.3,0.4,4.1,1.6,5.6,2.8l-1.8,0.6c-0.1,1.7,2.4-0.2,2.9,0.2c3.7,3.2,1.6,8.6,3.5,11.5
							c0.1,0.5-0.1,9.1-1.6,10c0.2,0.2,0.3,0.2,0.6,0.4c-0.6,2.2-1.4,5.1-1.6,7.9c-0.1,1.2,3.7,4.6,3.4,9
							C298.4,335.4,296.5,335.8,294.8,336z M263.1,344c-0.5,0.7-0.7,1.1-1.1,1.8l7.6-4C268.3,340.8,265,343,263.1,344z M267.4,339.8
							c-0.8,0.3-1.4,0.4-2.1,0.7l-1.2,1.7C264.5,342,266.8,341.2,267.4,339.8z M291.8,305.6c-1.9,0.1-6.5,5.7-10.8,11.4l-0.5-0.5
							c0.3-0.8,0.6-1.4,0.2-1.8c-1.6,1.8-2.3,2.7-1.4,4.6c-1.5,2-2.9,3.8-4.2,5.4c-1.8,2.3-4.5,6.6-6.8,9.9c2-1.2,3.5-3.3,7.5-5
							c3.5-1.5,5.6-1.9,9.2-2.9c0.3-2.6,1.3-4.5,1.7-5.9l1.7,1.5c1.2-3.1,2.6-11.2,3.7-15.7L291.8,305.6z M274.3,339.4v-0.1
							c-2.2,0.1-3.1,0.3-3.5,1.9C271.7,340.7,273.2,340.1,274.3,339.4z M283.1,349.5l-0.4,1.3h0.6l0.4-1.6L283.1,349.5z
							 M286.2,325.4c-0.4,1.2,0.3,1.2,1,1.1l0.1-1.1H286.2z M287.1,323.8l-0.4-0.1l-0.4,1.1h0.9L287.1,323.8z M290,311.5h-0.9
							l0.8-2.7l0.9-0.4L290,311.5z"/>
						<path class="st3" d="M346.8,318.3c-4.3,2.7-2.7,4-7.8,7c-1.5-2.1-4.4-0.4-7.4,2.4c9.5,8.7,20,22.9,29.7,22.9
							c4.7,0,9.7-1.4,11.9-2c1.1,0.3,2.7,1.5,3.5,2.5c-1.9,0.5-3.7,1-5.6,1.7l0.2,0.2c1.3,0,3.3,0.2,2.7,0.6c-1,0.8-4.8,2.9-8.5,4.2
							c-0.8,0.3,0.4,0.8,0.9,0.7c4.1-1.4,8.1-4.3,11.2-6.4c0.4,0.4,0.8,0.9,1,1.3c-5.3,4.9-14.8,9.9-22.3,9.9
							c-3.8-1.3-8.1-3.1-10.7-5.7c-4.9-4.8-18.3-23.9-24.3-27c-2.6,3.6-6.7,11.6-8.1,15.5c-0.6,1.3,1.3,3.9,0.8,5.8
							c-0.6,2.2-3.3,3.8-5.5,6c-1.9,0-4.5-1.6-5.3-3.7l-1.5-4.1c2.4-1.6-0.9-0.7-0.9-2.6c0-5.2,16.4-41.2,26.2-55.9
							c8.2,0,5.5,7,7,10.1c3.1-1.3,7.1-2.9,10.6-2.9c2.2,0,3.9,0.2,5.7,0.7l-0.7,1.6c1.4,0.4,3,0.4,3-0.9l1.9,0.8
							c-0.1,0.5-0.5,1.1-0.8,1.4c0.8,0.6,1.7,0.6,1.9-0.5c2,1.9,2.8,3.3,2.8,5.6c0,1.2-0.5,2.8-1.3,3.5c-2.7,2.4-5.5,5.2-9.2,8.4
							L346.8,318.3z M314.7,338.4l-2.9,5.3l0.5,1.2l2.9-5.7L314.7,338.4z M335.1,327.3l-0.6-0.9c1.1-0.8,2.8-1.4,3.3-0.4
							L335.1,327.3z M345.3,300.4l3.2,0.5l0.5-0.7C347.9,299.8,346,300,345.3,300.4z M359.7,359.3c-1.4-0.4-2.4,0.6-0.1,1.3
							c1.9-0.3,4.2-1,5.6-1.5V359c-0.5,0-0.7-0.5-1-0.7L359.7,359.3z"/>
						<path class="st3" d="M401.4,300.1c6.6-1.4,14-3,18.6-3.6c4.3,1.1,7.8,2.9,9.1,6.5c-1.7,1.5-0.8,4.1,0.1,5.6
							c-0.5,0.3-1,0.5-1.6,0.7l-0.2-0.6c-0.6-0.3-1.1-0.4-1.4-0.4c-0.4,0-0.7,0.3-0.7,0.7c0,0.3,0.1,0.6,0.2,0.8
							c-6,1.2-14.8,0.4-23.1,4H401v-1.1c-0.9-0.1-1.6,0.4-2.2,1.2c-3.4,0.4-4.5,1.7-6.6,8c-0.3,0.9-1.5,2.1-2.1,2.6l0.9,0.5
							c-0.5,2.1-2,6.1-3,6c-1.1-0.1-0.1-2.1-0.7-2c-1.1,0.2-1.2,2.4-1.7,4c0.5,1.3,0.6,2.1,0.6,2.9c-0.5,1.3-1,3.5-1.7,3.5
							c-1,0-0.4-1.9-0.8-2.7c-0.9,1.9-1.6,3.7-2.3,5.4l0.8,0.5c0.5-0.9,1-1.2,1.9-1c-1.9,5.2-3.6,10.4-4.7,14.9
							c-2.4,0.2-4.8-0.1-6.5-0.5l0.4-1.1c-2.6-0.9-2.4-4.3-2.8-8.2c-0.4-0.5-0.8-1.4-0.8-2.1c0-2.5,5.7-17.3,10.7-28.7h-7.8
							c-4.4,0-4.7,1.4-7.9,0.6c-1.5-2.3-3.3-6.7-3.3-9.7c0-1.2,0.4-2.3,1.4-3.3c3.9,0.4,13.2,0.8,19.3-0.4
							c10.1-2.1,5.7-11.6,15-11.6L401.4,300.1z M388.8,326.1l-1,1.8l0.6,0.7l0.8-1.8L388.8,326.1z"/>
					</g>
					<g class="st4">
						<path class="st3" d="M117.8,384.3h-1.1c-2.7,3.8-4.3,10.8-8.9,13.3l0.4,1.2l-3.9,2.2c-3.9,5.6-5.6,12.5-7.8,18.2
							c-0.3,0.8-1.6,2.4-0.3,2.8c0.3,0.1,1-2,1.1-2.3c2.3-5.2,4-13,7.6-17.1c1.4-0.5,0.4,0.7,0.2,1c-3.5,5.9-5.2,12.7-8.1,19.7
							c-2,4.7-2.7,9-2.2,11c-1.8-0.6-3.4-1.3-5-2.2v-3.2c-0.7,0.6-1,1.3-1.1,2.4c-2.3-1.7-4.2-4-5.5-7.5c0-18,18.6-42.6,25.8-55.8
							c0.6-0.8,1.9-1.4,3-1.4c1,0,2,0.4,3.1,0.7v2.4c2,0.8,3.6,3.1,3.6,5.3C118.7,377.7,118.3,381.3,117.8,384.3z M94.4,424.2
							l-1.1,2.7c-0.1,0.3,0.2,1.3,0.8,0.3l1.4-3.5C94.1,422.3,94.5,423.9,94.4,424.2z"/>
						<path class="st3" d="M178.9,373.5c1.1-0.7,3.1-1.2,5.2-1.3c3.6-0.1,6.4,0.4,8.1,1.6l-2,1.4l0.2,0.4c0.7,0,2.6-0.6,3.2-1l2.8,3
							c-5.2,2.4-14.5,9.3-19.6,16.3c-0.6,0.8-1-0.4-1.6,0c-0.2,3.6-2.3,5.5-4.7,9.3c-0.5,0.9-0.3,2.2-0.9,3.6c0,0.6-1.5,1.2-1.8,2.1
							c-2.5,7.7-5.9,15.7-9.1,23.9l-4.5-2.1l-0.6,1.4c-6.4-1.7-7-4.2-7.9-10.9c-0.3-2.6,0.5-7.1-0.2-9.3c-2.4-7-0.1-10-0.7-15.1
							l-0.5-3.9c-3.1,1-6.6,4-9.2,8.7l0.3,1.6c-5,9.4-9.5,22.4-14,28.4h-2.8c-2.9,0-4.5-6.7-5.7-7.3l-0.6-4.4
							c-0.5-3.1,0.4-4.2,1.1-6.1c7.1-17.2,18.5-27.6,26.4-35.7c3,1.1,11.2,6.2,12.6,9.9c1.2,3,2.4,9.3,3.4,13.4
							c6.8-11.8,16.8-26.5,19-27.3l2.1-0.3c-6.2,6.1-10.6,13.3-13,16.8c-0.9,1.5-1.3,2.1-1.1,2.2l0.6,0.4
							C166.3,388.7,173,379.2,178.9,373.5z M139.3,380.5l-2.2,2.3c1.2,1,2.3-1,3-1.7L139.3,380.5z M169.1,412.3l-0.9-0.6
							c0.1-1.4,0.2-3.3,1.4-2.8L169.1,412.3z M177,389.1c-0.8,1.2-2.4,3.3-1.4,3.8l2.1-3.2C177.9,389.4,177.2,388.8,177,389.1z
							 M176.5,378.5l1.7-2.2l-0.8-0.4c-0.5,0.4-1.1,1.1-1.7,2.1C175.8,378.2,176.1,378.6,176.5,378.5z M179.6,385.6l-2,2.6
							c0.6-0.1,0.8,0.1,0.9,0.5l1.8-2.6C180.5,385.9,180.1,385,179.6,385.6z M187.2,377.3l0.2,0.9c1-0.7,1.9-0.8,1.7-2.3
							L187.2,377.3z"/>
						<path class="st3" d="M253.4,371.7c0.6-0.4,1.3-0.3,1.4,0.2c-5,4.1-8.5,12.5-13.8,15.9c-4.1-0.5-3,4.5-4.8,4.6
							c-1.4,0-2.1,2-3.1,3.4c-7.8,11-22.2,24.5-33.2,36.5l-6.2-2.1c-1.7-3-4.6-5.8-4.7-9.9c-0.2-5.7,1.6-38.5,2-44.4
							c0.1-2.3-2.1-6.2,0.2-8c7.7,3.1,10.9,10.5,11.3,18.9c-1.2,3.4,0.9,6,0.6,8.9l-1.1,0.2c-0.5,3.1-1.2,6.2-2.1,9.1l1.6,4.4
							c9.9-9,18-18.8,26-29.5c4.2,0.2,3.1-3.7,8.2-3.2l3.9-4.2c0.8-0.9,2.3-0.7,2.7,0.2c-1.1,1.5-5.4,6.2-9.4,9.8
							c-0.4,0.4,0.2,0.7,1,0.4c3.8-3.1,10.1-9.7,11.4-11.5c1.3,0.1,2.5-2.6,4.3-1.1c-1.1,0.9-3,2.6-2.7,4.3c1-1.2,2.5-2.8,3.5-2.5
							l0.3,0.1c-1.5,1.7-4,5-5.6,7.6l0.7,0.2C247.6,377.8,250.4,374.2,253.4,371.7z M198.2,402.3c-0.1,0.8,0.2,1.6,0.9,1.6l0.2-1.6
							H198.2z M198.8,399.4l-0.4,1.8l1.1,0.4C199.5,400.7,200.3,399.4,198.8,399.4z M228.6,397.6l0.6,1.2c1.7-1.8,1.6-3,0.9-3.4
							L228.6,397.6z M233.2,390.6c0.6,0.5,1.2,0.6,1.6,0.6c1-0.1,1.6-1.2,1.7-2.5L233.2,390.6z M240,390.6l-0.9-0.8
							c0.4-1,1.1-1.3,1.7-0.9L240,390.6z M243.9,381.2l-2.1,2.1c-1.2,0.6-0.8,2.1,0.5,1.1c1.4-1.1,2.3-2.5,2.6-3.1
							C244.3,381.6,244,381,243.9,381.2z M251.4,369.7c0.3-0.4,0.8-0.7,1.2-0.7c0.3,0,0.6,0.1,0.9,0.6c-0.5,0.3-1,0.7-2,1.8
							c-0.2-0.3-0.6-0.3-1-0.3C250.7,370.7,251,370.2,251.4,369.7z"/>
						<path class="st3" d="M289.4,383c-9.1,4.1-18.4,4.4-27.2,6.9c-1.1,1.8-2.5,4.1-4.2,6.8c4-0.4,12.3-3.8,15.2-3.8
							c2.9,0,3.8,1,5.9,4.6c-0.4,1.1,0.1,2.1,1.1,2.6l-0.7,2.2c-6.1,1-21,3.4-26,5.6c-2.6,1.1-4.9,12.1-5,14.4
							c3.1,2.3,7.8,1.3,10.7,0.6l0.6,1c0.7,0,1.6-0.6,1.6-1.2c1.5-0.2,2,2.2,3.4,1.8c6.5-1.8,14.2-4.4,19.2-6
							c0.3-0.1,0.7-0.2,0.8,0.1c0.2,0.5-1.3,1.2-2.1,1.6l-6.8,2.5c0.6,0.4,1.7,1.1,2.4,1.5c0.3,0.1,0.1,0.3-0.2,0.4
							c-5,1.7-11.2,3.4-16.8,4.8c1.5,0.7,3.7,0.7,5.6,0.2c4-1.1,9.5-3,14.4-4.7c0.3-0.1,1-0.4,0.5,0.6c-0.6,1-1.4,1.7-2.8,2.2
							c-6.5,2.5-14.9,5.5-21,5.5c-11.7,0-20-5.3-19.6-19.9c0.2-7.4,6.3-16.5,13.6-31.8c-0.5-2.5-0.4-4.9,1.4-7.6
							c5,0.6,7.9-7.1,11.4-7.1c1.9,0,7.2,1.5,8.5,1.9c0.1,2.2-0.4,4.5-1.8,7.2c1.7,0.4,6.5,0.9,8.7,0.9l0.9,1.9
							c0.5,0,1.4-0.6,2.5-0.6c1.1,0,3.5,1,4.9,1.2c0.2,0,0.4,0.2,0.2,0.4c-4,3.6-6.8,1.4-6.1,4.4c3-1.2,5.5-1.9,8.3-3.2
							c0.4-0.2,1-0.9,1.1-0.3C292.2,381.6,290.4,382.2,289.4,383z M247.1,417.9c-0.4,1.8-0.5,3.1,0.3,3.7l0.5-2.7L247.1,417.9z
							 M248.7,412.2l-1.1,3.7l0.7,0.9l1.4-4.7L248.7,412.2z M248.9,411.5h0.1c0.6-0.8,1.4-1.6,1.8-2.6c-1.3-0.1-1.7,0.5-1.9,1.5
							V411.5z M254.6,397l1.3-0.2l1-2.3C256.2,394.5,254.9,395.9,254.6,397z M259.2,390.3l-1.7,2.8l1.3-0.3l1.7-2.8L259.2,390.3z
							 M272.2,420.3c-2.8,2.1-6.3,3.5-7.5,1.6c4.6-1,9.2-2.5,12.9-4c0.4-0.2,0.5,0.1,0.3,0.4C276.7,419.7,274.1,420.4,272.2,420.3z
							 M281.6,379.9l0.3,1.2l1.8-0.8C283.6,379.8,282.2,379.7,281.6,379.9z"/>
						<path class="st3" d="M351.4,373.5c1.1-0.7,3.1-1.2,5.2-1.3c3.6-0.1,6.4,0.4,8.1,1.6l-2,1.4l0.2,0.4c0.7,0,2.6-0.6,3.2-1l2.8,3
							c-5.2,2.4-14.5,9.3-19.6,16.3c-0.6,0.8-1-0.4-1.6,0c-0.2,3.6-2.3,5.5-4.7,9.3c-0.5,0.9-0.3,2.2-0.9,3.6c0,0.6-1.5,1.2-1.8,2.1
							c-2.5,7.7-5.9,15.7-9.1,23.9l-4.5-2.1l-0.6,1.4c-6.4-1.7-7-4.2-7.9-10.9c-0.3-2.6,0.5-7.1-0.2-9.3c-2.4-7-0.1-10-0.7-15.1
							l-0.5-3.9c-3.1,1-6.6,4-9.2,8.7l0.3,1.6c-5,9.4-9.5,22.4-14,28.4h-2.8c-2.9,0-4.5-6.7-5.7-7.3l-0.6-4.4
							c-0.5-3.1,0.4-4.2,1.1-6.1c7.1-17.2,18.5-27.6,26.4-35.7c3,1.1,11.2,6.2,12.6,9.9c1.2,3,2.4,9.3,3.4,13.4
							c6.8-11.8,16.8-26.5,19-27.3l2.1-0.3c-6.2,6.1-10.6,13.3-13,16.8c-0.9,1.5-1.3,2.1-1.1,2.2l0.6,0.4
							C338.8,388.7,345.5,379.2,351.4,373.5z M311.8,380.5l-2.2,2.3c1.2,1,2.3-1,3-1.7L311.8,380.5z M341.6,412.3l-0.9-0.6
							c0.1-1.4,0.2-3.3,1.4-2.8L341.6,412.3z M349.5,389.1c-0.8,1.2-2.4,3.3-1.4,3.8l2.1-3.2C350.4,389.4,349.7,388.8,349.5,389.1z
							 M349,378.5l1.7-2.2l-0.8-0.4c-0.5,0.4-1.1,1.1-1.7,2.1C348.3,378.2,348.6,378.6,349,378.5z M352.1,385.6l-2,2.6
							c0.6-0.1,0.8,0.1,0.9,0.5l1.8-2.6C353,385.9,352.6,385,352.1,385.6z M359.7,377.3l0.2,0.9c1-0.7,1.9-0.8,1.7-2.3L359.7,377.3z
							"/>
						<path class="st3" d="M399,375.1c6.6-1.4,14-3,18.6-3.6c4.3,1.1,7.8,2.9,9.1,6.5c-1.7,1.5-0.8,4.1,0.1,5.6
							c-0.5,0.3-1,0.5-1.6,0.7l-0.2-0.6c-0.6-0.3-1.1-0.4-1.4-0.4c-0.4,0-0.7,0.3-0.7,0.7c0,0.3,0.1,0.6,0.2,0.8
							c-6,1.2-14.8,0.4-23.1,4h-1.4v-1.1c-0.9-0.1-1.6,0.4-2.2,1.2c-3.4,0.4-4.5,1.7-6.6,8c-0.3,0.9-1.5,2.1-2.1,2.6l0.9,0.5
							c-0.5,2.1-2,6.1-3,6c-1.1-0.1-0.1-2.1-0.7-2c-1.1,0.2-1.2,2.4-1.7,4c0.5,1.3,0.6,2.1,0.6,2.9c-0.5,1.3-1,3.5-1.7,3.5
							c-1,0-0.4-1.9-0.8-2.7c-0.9,1.9-1.6,3.7-2.3,5.4l0.8,0.5c0.5-0.9,1-1.2,1.9-1c-1.9,5.2-3.6,10.4-4.7,14.9
							c-2.4,0.2-4.8-0.1-6.5-0.5l0.4-1.1c-2.6-0.9-2.4-4.3-2.8-8.2c-0.4-0.5-0.8-1.4-0.8-2.1c0-2.5,5.7-17.3,10.7-28.7h-7.8
							c-4.4,0-4.7,1.4-7.9,0.6c-1.5-2.3-3.3-6.7-3.3-9.7c0-1.2,0.4-2.3,1.4-3.3c3.9,0.4,13.2,0.8,19.3-0.4
							c10.1-2.1,5.7-11.6,15-11.6L399,375.1z M386.4,401.1l-1,1.8l0.6,0.7l0.8-1.8L386.4,401.1z"/>
						<path class="st3" d="M463.9,410.4c0.5,1-0.2,2.1-1.3,2.1l-0.7-1.3c-0.8,0.2-1.4,0.6-0.8,1.7c-1.1,0-2.9,0.9-2.9,2
							c0,1.5-1.7,1-2.9,1.3c-1.1,1.1-2,2.4-3.2,4l-1.1-1c-2.6,1.6-1.2,2.7-3.9,4c-1.6,0.8-3.5,0.7-5.3,1.1c-0.3,0.3,0.9,0.7,0.8,1.1
							l-1.8,0.6l-2.8-1.7c-1.6,1-0.4,3.3-2.4,4c-2.4,0.8-4.3,1.5-7.1,2.4c-1.7-1.7-3.7-1.1-5.1,0c-3.5-2.2-7.8-5.5-10.4-7.7
							c-2.4-1.9-3.2-6.8-3.2-11.6c0-24.3,30.3-40,37.8-40c2.9,0,4.3,1.8,7.4,4.2c0,4.6,4.9,8.3,9,11.1c3.9,2.6,5.2,7.6,5.2,13
							C469.2,403,467.5,407.5,463.9,410.4z M453.1,389.9c-0.3-0.9-0.5-1.5-0.9-1.1c-0.4,0.4-0.8,0.6-1.1,0.6c-0.7,0-1.1-0.8-1.2-0.8
							c-5.3,0-14.5,6.1-18.7,12.7c-4.8,2.3-8.1,8-10.3,14.9c2.3-0.2,5.3-0.4,7.1-1.1l18-7.5c2-0.8,6.3-2.9,8.2-5.3l4.5-5.9
							L453.1,389.9z M428.3,401.1c-1.5-0.9-3.3,0.5-3.5,1.6c0,0.6,0.3,1.1,1.2,1.2L428.3,401.1z M428.7,428.9
							c-0.4-0.6-1.1-1.1-1.8-1.1c-0.4,0.1-0.8,0.2-1.2,0.6L428.7,428.9z M441.8,421.9c0,0.3-0.4,1-0.2,1.2c0.4,0.3,1.2,0,1.7-0.2
							C443.3,422.2,442.8,421.9,441.8,421.9z M447.2,419c-1.8,0.9-2.5,1.4-2.4,2.5l2.9-1.5L447.2,419z M450,416.6l-1.6,1.7l0.4,1.1
							l2-1.2C450.5,417.9,450.3,416.8,450,416.6z"/>
						<path class="st3" d="M514.7,393.3c-4.3,2.7-2.7,4-7.8,7c-1.5-2.1-4.4-0.4-7.4,2.4c9.5,8.7,20,22.9,29.7,22.9
							c4.7,0,9.7-1.4,11.9-2c1.1,0.3,2.7,1.5,3.5,2.5c-1.9,0.5-3.7,1-5.6,1.7l0.2,0.2c1.3,0,3.3,0.2,2.7,0.6c-1,0.8-4.8,2.9-8.5,4.2
							c-0.8,0.3,0.4,0.8,0.9,0.7c4.1-1.4,8.1-4.3,11.2-6.4c0.4,0.4,0.8,0.9,1,1.3c-5.3,4.9-14.8,9.9-22.3,9.9
							c-3.8-1.3-8.1-3.1-10.7-5.7c-4.9-4.8-18.3-23.9-24.3-27c-2.6,3.6-6.7,11.6-8.1,15.5c-0.6,1.3,1.3,3.9,0.8,5.8
							c-0.6,2.2-3.3,3.8-5.5,6c-1.9,0-4.5-1.6-5.3-3.7l-1.5-4.1c2.4-1.6-0.9-0.7-0.9-2.6c0-5.2,16.4-41.2,26.2-55.9
							c8.2,0,5.5,7,7,10.1c3.1-1.3,7.1-2.9,10.6-2.9c2.2,0,3.9,0.2,5.7,0.7l-0.7,1.6c1.4,0.4,3,0.4,3-0.9l1.9,0.8
							c-0.1,0.5-0.5,1.1-0.8,1.4c0.8,0.6,1.7,0.6,1.9-0.5c2,1.9,2.8,3.3,2.8,5.6c0,1.2-0.5,2.8-1.3,3.5c-2.7,2.4-5.5,5.2-9.2,8.4
							L514.7,393.3z M482.6,413.4l-2.9,5.3l0.5,1.2l2.9-5.7L482.6,413.4z M503,402.3l-0.6-0.9c1.1-0.8,2.8-1.4,3.3-0.4L503,402.3z
							 M513.2,375.4l3.2,0.5l0.5-0.7C515.8,374.8,513.9,375,513.2,375.4z M527.6,434.3c-1.4-0.4-2.4,0.6-0.1,1.3
							c1.9-0.3,4.2-1,5.6-1.5V434c-0.5,0-0.7-0.5-1-0.7L527.6,434.3z"/>
						<path class="st3" d="M562.4,418.7l-1.4-1.3c-1,0.8-2.7,2-0.8,4.4c-0.8,1.2-1.6,2.7-2.4,4.3c-0.9,0.4-1.7,1-2.4,1.7l0.8,2
							l-0.4,0.7l-1.2-1.6c-1.6,2.2-2.7,5.3-3.2,8.3l1.9,0.9c-0.4,1.6-0.6,3.2-0.7,4.5c-0.8,0.4-2.1,0.6-3.1,0.6
							c-3.3,0-5.8-1.2-7.4-2.6c-0.1-1-0.7-1.4-1.4-1.4c-0.8-1-1.1-1.8-1-2.1c1.6-8.4,8-17.7,12.1-29.2l-0.7-0.6
							c-3.1,0-5.6-0.6-8.3-1.9c-0.4,0.6-1,0.8-1.8,0l-6.6-6.5h-1.2c-6.1-8.9-1.6-19.3,3.9-28.5l1.4,0.6c0.2-0.5,0.4-0.9,0.6-1.1
							c0.3-0.3,0.6-0.5,0.9-0.5c0.6,0,5.6,2.1,8.1,3.2l1.6,2.8c-0.9,5.7-4.5,8.5-5.1,14.3l-1.5,1.2c-0.7,4.2-0.3,6.7,2.1,9.8
							c6.7,0.6,11.9-2.5,14.9-6.7l10.6-14.9l0.8,1.3l4-5.8c0.7-1,1.6-1,2.5-0.3c2.6-2.1,4.8-2.3,6.6-1.4c-0.1,1.2,0.4,1.7,2.1,1.9
							c1.1,1.5,1.9,3.6,2.3,5.9c-1,2.5-2.6,4.9-4.7,7.3c-3.9-0.6-4.3,1.2-5.6,3.9l1.4,0.7c-3.9,4.1-7.8,8.1-9.1,11.9l-1.4-1.3
							c-0.1,4-3,6.6-4.5,8.9c-0.7,1.1-0.5,2.5-0.7,3.7l-1-0.7c0.1-0.7,0.1-1.3-0.4-1.7c-1.1,1.9-1.7,2.7,0.1,4.6L562.4,418.7z
							 M551.2,438.2l-0.3,1.7l0.8,0.4l0.6-1.6L551.2,438.2z M553.5,437.3c-1.3-0.9-0.4-3.5,1.3-4.1l0.1,0.1L553.5,437.3z
							 M561.7,423.3c-0.3,0.6-0.9,1.1-1.9,0.7l0.9-1.6L561.7,423.3z M580.9,389.9c0.5-0.5,1.4-1.6,2.6-1c-0.6,0.7-1.3,1.5-2,2.2
							L580.9,389.9z"/>
					</g>
				</g>
			</g>
		</g>
	</g>
</g>
</svg>
